<svg width="24" height="24" viewBox="0 0 24 24" fill="none" xmlns="http://www.w3.org/2000/svg">
<rect x="1" y="1" width="21.5" height="21.5" rx="4" fill="#191919"/>
<path d="M13.3334 14.6666C13.2015 14.6666 13.0727 14.6275 12.963 14.5542C12.8534 14.481 12.768 14.3768 12.7176 14.255C12.6671 14.1332 12.6539 13.9992 12.6796 13.8699C12.7053 13.7406 12.7688 13.6218 12.862 13.5286L17.5287 8.86195C17.6544 8.74051 17.8228 8.67331 17.9976 8.67483C18.1724 8.67635 18.3396 8.74646 18.4632 8.87007C18.5868 8.99367 18.657 9.16088 18.6585 9.33568C18.66 9.51048 18.5928 9.67888 18.4714 9.80461L13.8047 14.4713C13.6797 14.5963 13.5102 14.6666 13.3334 14.6666ZM6.00002 15.3333C5.86819 15.3333 5.73932 15.2941 5.62972 15.2209C5.52011 15.1476 5.43468 15.0435 5.38424 14.9217C5.33379 14.7999 5.32059 14.6659 5.3463 14.5366C5.37201 14.4073 5.43548 14.2885 5.52869 14.1953L9.52869 10.1953C9.65442 10.0738 9.82282 10.0066 9.99762 10.0082C10.1724 10.0097 10.3396 10.0798 10.4632 10.2034C10.5868 10.327 10.657 10.4942 10.6585 10.669C10.66 10.8438 10.5928 11.0122 10.4714 11.1379L6.47135 15.1379C6.34636 15.263 6.17682 15.3332 6.00002 15.3333Z" fill="#FBFBF7"/>
<path d="M13.3334 14.6673C13.1566 14.6672 12.987 14.597 12.862 14.4719L9.52869 11.1386C9.40726 11.0129 9.34006 10.8445 9.34158 10.6697C9.3431 10.4949 9.41321 10.3277 9.53681 10.2041C9.66042 10.0804 9.82763 10.0103 10.0024 10.0088C10.1772 10.0073 10.3456 10.0745 10.4714 10.1959L13.8047 13.5293C13.8979 13.6225 13.9614 13.7413 13.9871 13.8706C14.0128 13.9999 13.9996 14.1339 13.9491 14.2557C13.8987 14.3775 13.8133 14.4816 13.7037 14.5549C13.5941 14.6281 13.4652 14.6672 13.3334 14.6673Z" fill="#FBFBF7"/>
</svg>
