<svg width="64" height="64" viewBox="0 0 64 64" fill="none" xmlns="http://www.w3.org/2000/svg">
<circle cx="32" cy="32" r="32" fill="#191919"/>
<path d="M42 33.6634H33.6667V41.9967C33.6667 42.4388 33.4911 42.8627 33.1786 43.1753C32.866 43.4878 32.4421 43.6634 32 43.6634C31.558 43.6634 31.1341 43.4878 30.8215 43.1753C30.509 42.8627 30.3334 42.4388 30.3334 41.9967V33.6634H22C21.558 33.6634 21.1341 33.4878 20.8215 33.1753C20.509 32.8627 20.3334 32.4388 20.3334 31.9967C20.3334 31.5547 20.509 31.1308 20.8215 30.8182C21.1341 30.5057 21.558 30.3301 22 30.3301H30.3334V21.9967C30.3334 21.5547 30.509 21.1308 30.8215 20.8182C31.1341 20.5057 31.558 20.3301 32 20.3301C32.4421 20.3301 32.866 20.5057 33.1786 20.8182C33.4911 21.1308 33.6667 21.5547 33.6667 21.9967V30.3301H42C42.4421 30.3301 42.866 30.5057 43.1786 30.8182C43.4911 31.1308 43.6667 31.5547 43.6667 31.9967C43.6667 32.4388 43.4911 32.8627 43.1786 33.1753C42.866 33.4878 42.4421 33.6634 42 33.6634Z" fill="#FBFBF7"/>
</svg>
