<svg width="25" height="24" viewBox="0 0 25 24" fill="none" xmlns="http://www.w3.org/2000/svg">
<path d="M13.8334 14.6666C13.7015 14.6666 13.5727 14.6275 13.463 14.5542C13.3534 14.481 13.268 14.3768 13.2176 14.255C13.1671 14.1332 13.1539 13.9992 13.1796 13.8699C13.2053 13.7406 13.2688 13.6218 13.362 13.5286L18.0287 8.86195C18.1544 8.74051 18.3228 8.67331 18.4976 8.67483C18.6724 8.67635 18.8396 8.74646 18.9632 8.87007C19.0868 8.99367 19.157 9.16088 19.1585 9.33568C19.16 9.51048 19.0928 9.67888 18.9714 9.80461L14.3047 14.4713C14.1797 14.5963 14.0102 14.6666 13.8334 14.6666ZM6.50002 15.3333C6.36819 15.3333 6.23932 15.2941 6.12972 15.2209C6.02011 15.1476 5.93468 15.0435 5.88424 14.9217C5.83379 14.7999 5.82059 14.6659 5.8463 14.5366C5.87201 14.4073 5.93548 14.2885 6.02869 14.1953L10.0287 10.1953C10.1544 10.0738 10.3228 10.0066 10.4976 10.0082C10.6724 10.0097 10.8396 10.0798 10.9632 10.2034C11.0868 10.327 11.157 10.4942 11.1585 10.669C11.16 10.8438 11.0928 11.0122 10.9714 11.1379L6.97135 15.1379C6.84636 15.263 6.67682 15.3332 6.50002 15.3333Z" fill="#191919"/>
<path d="M13.8334 14.6673C13.6566 14.6672 13.487 14.597 13.362 14.4719L10.0287 11.1386C9.90726 11.0129 9.84006 10.8445 9.84158 10.6697C9.8431 10.4949 9.91321 10.3277 10.0368 10.2041C10.1604 10.0804 10.3276 10.0103 10.5024 10.0088C10.6772 10.0073 10.8456 10.0745 10.9714 10.1959L14.3047 13.5293C14.3979 13.6225 14.4614 13.7413 14.4871 13.8706C14.5128 13.9999 14.4996 14.1339 14.4491 14.2557C14.3987 14.3775 14.3133 14.4816 14.2037 14.5549C14.0941 14.6281 13.9652 14.6672 13.8334 14.6673Z" fill="#191919"/>
<rect x="2.1" y="1.6" width="20.3" height="20.3" rx="3.4" stroke="#191919" stroke-width="1.2"/>
</svg>
