<svg width="41" height="40" viewBox="0 0 41 40" fill="none" xmlns="http://www.w3.org/2000/svg">
<rect x="0.5" width="40" height="40" rx="20" fill="#191919"/>
<path d="M16.6334 13.25C16.6334 11.2075 18.3409 9.5 20.3834 9.5C22.4259 9.5 24.1334 11.2075 24.1334 13.25V21.425C25.5971 22.9188 26.0336 25.205 25.2235 27.133C24.4133 29.0611 22.4748 30.3492 20.3834 30.3492C18.2921 30.3492 16.3535 29.0611 15.5434 27.133C14.7332 25.205 15.1698 22.9188 16.6334 21.425V13.25ZM20.3842 10.5983C18.7866 10.5983 17.8844 11.7468 17.8844 13.25V22L17.7318 22.3055C16.5201 23.3891 16.0426 25.0564 16.6334 26.6032C17.247 28.2098 18.6683 29 20.3167 29C22.0172 29 23.4932 28.2795 24.1334 26.6032C24.6653 25.2105 24.4437 23.3381 23.289 22.3055L23.1334 22L23.0351 13.25C23.0351 11.9018 21.7504 10.5983 20.3842 10.5983ZM21.1334 17C21.1334 16.8011 21.0544 16.6103 20.9137 16.4697C20.7731 16.329 20.5823 16.25 20.3834 16.25C20.1845 16.25 19.9937 16.329 19.8531 16.4697C19.7124 16.6103 19.6334 16.8011 19.6334 17V23.1275C19.133 23.3044 18.7112 23.6526 18.4427 24.1104C18.1741 24.5682 18.0761 25.1062 18.1658 25.6293C18.2556 26.1524 18.5274 26.627 18.9332 26.9691C19.339 27.3112 19.8526 27.4988 20.3834 27.4988C20.9142 27.4988 21.4279 27.3112 21.8337 26.9691C22.2395 26.627 22.5113 26.1524 22.601 25.6293C22.6908 25.1062 22.5927 24.5682 22.3241 24.1104C22.0556 23.6526 21.6338 23.3044 21.1334 23.1275V17Z" fill="#FBFBF7"/>
</svg>
