<svg width="40" height="40" viewBox="0 0 40 40" fill="none" xmlns="http://www.w3.org/2000/svg">
<rect width="40" height="40" rx="20" fill="#191919"/>
<path d="M19.997 29.0004C17.9977 29.0004 16.3317 28.3131 14.999 26.9384C13.6663 25.5631 13 23.8514 13 21.8034C13 20.8968 13.2067 19.9834 13.62 19.0634C14.0327 18.1434 14.5483 17.2608 15.167 16.4154C15.787 15.5694 16.4557 14.7721 17.173 14.0234C17.891 13.2741 18.5577 12.6221 19.173 12.0674C19.293 11.9601 19.424 11.8771 19.566 11.8184C19.7073 11.7604 19.852 11.7314 20 11.7314C20.148 11.7314 20.2927 11.7604 20.434 11.8184C20.5753 11.8764 20.7063 11.9598 20.827 12.0684C21.4423 12.6218 22.109 13.2734 22.827 14.0234C23.545 14.7721 24.2137 15.5691 24.833 16.4144C25.4523 17.2598 25.9683 18.1428 26.381 19.0634C26.7937 19.9841 27 20.8974 27 21.8034C27 23.8514 26.3327 25.5631 24.998 26.9384C23.662 28.3131 21.9957 29.0004 19.997 29.0004ZM20 28.0004C21.7333 28.0004 23.1667 27.4128 24.3 26.2374C25.4333 25.0621 26 23.5831 26 21.8004C26 20.5838 25.4957 19.2088 24.487 17.6754C23.4783 16.1421 21.9827 14.4671 20 12.6504C18.0167 14.4671 16.521 16.1421 15.513 17.6754C14.505 19.2088 14.0007 20.5838 14 21.8004C14 23.5838 14.5667 25.0631 15.7 26.2384C16.8333 27.4138 18.2667 28.0011 20 28.0004Z" fill="#FBFBF7"/>
</svg>
