<svg width="41" height="40" viewBox="0 0 41 40" fill="none" xmlns="http://www.w3.org/2000/svg">
<rect x="0.5" width="40" height="40" rx="20" fill="#191919"/>
<path d="M26.375 29C25.3065 29.0232 24.2723 28.6219 23.4991 27.8839C22.7259 27.146 22.2767 26.1317 22.25 25.0633C22.2664 24.3085 22.4934 23.5734 22.9055 22.9408L25.6175 18.9035C25.701 18.7793 25.8138 18.6775 25.9459 18.6072C26.078 18.5368 26.2253 18.5 26.375 18.5C26.5247 18.5 26.672 18.5368 26.8041 18.6072C26.9362 18.6775 27.049 18.7793 27.1325 18.9035L29.795 22.8613C30.2351 23.5131 30.4797 24.2771 30.5 25.0633C30.4733 26.1317 30.0241 27.146 29.2509 27.8839C28.4777 28.6219 27.4435 29.0232 26.375 29ZM26.375 20.465L24.173 23.7403C23.9108 24.1329 23.7643 24.5914 23.75 25.0633C23.8001 25.7252 24.0984 26.3438 24.5851 26.7951C25.0719 27.2464 25.7112 27.4972 26.375 27.4972C27.0388 27.4972 27.6781 27.2464 28.1649 26.7951C28.6516 26.3438 28.9499 25.7252 29 25.0633C28.9824 24.5604 28.8182 24.0737 28.5275 23.663L26.375 20.465Z" fill="#FBFBF7"/>
<path d="M11.75 18.5C12.1642 18.5 12.5 18.1642 12.5 17.75C12.5 17.3358 12.1642 17 11.75 17C11.3358 17 11 17.3358 11 17.75C11 18.1642 11.3358 18.5 11.75 18.5Z" fill="#FBFBF7"/>
<path d="M16.25 23C16.6642 23 17 22.6642 17 22.25C17 21.8358 16.6642 21.5 16.25 21.5C15.8358 21.5 15.5 21.8358 15.5 22.25C15.5 22.6642 15.8358 23 16.25 23Z" fill="#FBFBF7"/>
<path d="M19.25 27.5C19.6642 27.5 20 27.1642 20 26.75C20 26.3358 19.6642 26 19.25 26C18.8358 26 18.5 26.3358 18.5 26.75C18.5 27.1642 18.8358 27.5 19.25 27.5Z" fill="#FBFBF7"/>
<path d="M20.75 20C21.1642 20 21.5 19.6642 21.5 19.25C21.5 18.8358 21.1642 18.5 20.75 18.5C20.3358 18.5 20 18.8358 20 19.25C20 19.6642 20.3358 20 20.75 20Z" fill="#FBFBF7"/>
<path d="M17.75 17C18.1642 17 18.5 16.6642 18.5 16.25C18.5 15.8358 18.1642 15.5 17.75 15.5C17.3358 15.5 17 15.8358 17 16.25C17 16.6642 17.3358 17 17.75 17Z" fill="#FBFBF7"/>
<path d="M28.25 17C28.6642 17 29 16.6642 29 16.25C29 15.8358 28.6642 15.5 28.25 15.5C27.8358 15.5 27.5 15.8358 27.5 16.25C27.5 16.6642 27.8358 17 28.25 17Z" fill="#FBFBF7"/>
<path d="M14.75 29C15.1642 29 15.5 28.6642 15.5 28.25C15.5 27.8358 15.1642 27.5 14.75 27.5C14.3358 27.5 14 27.8358 14 28.25C14 28.6642 14.3358 29 14.75 29Z" fill="#FBFBF7"/>
<path d="M10.25 24.5C10.6642 24.5 11 24.1642 11 23.75C11 23.3358 10.6642 23 10.25 23C9.83579 23 9.5 23.3358 9.5 23.75C9.5 24.1642 9.83579 24.5 10.25 24.5Z" fill="#FBFBF7"/>
<path d="M9.5 12.5H30.5V14H9.5V12.5Z" fill="#FBFBF7"/>
</svg>
