<svg width="48" height="48" viewBox="0 0 48 48" fill="none" xmlns="http://www.w3.org/2000/svg">
<circle cx="24" cy="24" r="24" fill="#191919"/>
<path d="M19.4615 32.0878C19.0141 32.0878 18.6475 31.9326 18.3616 31.6223C18.0757 31.3119 17.9324 30.9339 17.9317 30.488V21.4148L16.0753 17.111H14.5566C14.3988 17.111 14.2666 17.0577 14.16 16.951C14.0533 16.8444 14 16.7125 14 16.5555C14 16.3985 14.0533 16.2663 14.16 16.1589C14.2666 16.0515 14.3985 15.9985 14.5555 16H16.2275C16.4074 16 16.573 16.0511 16.7241 16.1533C16.8744 16.2548 16.987 16.3855 17.0618 16.5455L18.5327 19.9739H33.0873C33.4302 19.9739 33.6909 20.118 33.8694 20.4061C34.0479 20.6942 34.0564 20.9875 33.895 21.286L31.2209 26.5397C31.9371 26.6019 32.5363 26.8989 33.0184 27.4306C33.4998 27.9617 33.7406 28.5883 33.7406 29.3104C33.7406 30.0777 33.4739 30.7324 32.9407 31.2745C32.4059 31.8167 31.756 32.0878 30.9909 32.0878C30.2125 32.0878 29.5552 31.8167 29.019 31.2745C28.4828 30.7324 28.2147 30.0777 28.2147 29.3104C28.2147 28.9504 28.275 28.6175 28.3958 28.3116C28.5172 28.0057 28.6898 27.7332 28.9135 27.494L23.7142 27.0329L20.9368 31.1768C20.7679 31.4338 20.5532 31.6497 20.2924 31.8245C20.031 32 19.754 32.0878 19.4615 32.0878ZM29.9855 26.5008L32.7351 21.0849H19.0004L20.4313 24.4177C20.5869 24.7881 20.8357 25.0984 21.1779 25.3487C21.5201 25.599 21.9463 25.7494 22.4566 25.7998L29.9855 26.5008ZM19.4681 30.949C19.6192 30.949 19.8021 30.8172 20.0169 30.5535L22.4766 26.9174C21.7256 26.8248 21.1123 26.6248 20.6368 26.3175C20.1606 26.0108 19.7999 25.6013 19.5548 25.0887L19.0426 23.8923V30.4935C19.0426 30.632 19.0797 30.7424 19.1537 30.8246C19.2278 30.9076 19.3326 30.949 19.4681 30.949ZM30.9643 30.9979C31.4457 30.9979 31.8438 30.8361 32.1586 30.5124C32.4733 30.1888 32.6307 29.7951 32.6307 29.3315C32.6307 28.8501 32.4733 28.452 32.1586 28.1372C31.8438 27.8224 31.4457 27.6651 30.9643 27.6651C30.5014 27.6651 30.1077 27.8224 29.7833 28.1372C29.4589 28.452 29.2971 28.8501 29.2978 29.3315C29.2978 29.7944 29.4597 30.188 29.7833 30.5124C30.107 30.8368 30.5006 30.9987 30.9643 30.9979Z" fill="white"/>
</svg>
