<svg width="16" height="17" viewBox="0 0 16 17" fill="none" xmlns="http://www.w3.org/2000/svg">
<path d="M13.049 4.78381C13.1379 4.69776 13.2088 4.59481 13.2576 4.48097C13.3064 4.36713 13.3321 4.24468 13.3333 4.12077C13.3344 3.99685 13.3109 3.87394 13.2642 3.75923C13.2175 3.64451 13.1484 3.54028 13.0611 3.45261C12.9738 3.36494 12.87 3.29559 12.7556 3.24861C12.6413 3.20163 12.5188 3.17796 12.3953 3.17898C12.2718 3.18 12.1497 3.20568 12.0362 3.25454C11.9226 3.3034 11.8199 3.37445 11.7341 3.46354L8.00523 7.20285L4.27763 3.46354C4.19246 3.37185 4.08974 3.29831 3.97562 3.2473C3.8615 3.19629 3.73831 3.16886 3.61339 3.16665C3.48847 3.16444 3.36439 3.18749 3.24854 3.23443C3.1327 3.28137 3.02746 3.35123 2.93912 3.43985C2.85077 3.52847 2.78113 3.63404 2.73434 3.75025C2.68755 3.86646 2.66457 3.99093 2.66677 4.11624C2.66897 4.24155 2.69632 4.36513 2.74717 4.47961C2.79802 4.59409 2.87133 4.69713 2.96274 4.78257L6.68785 8.52312L2.96025 12.2624C2.79592 12.4393 2.70645 12.6733 2.7107 12.9151C2.71496 13.1569 2.8126 13.3876 2.98305 13.5586C3.15351 13.7296 3.38347 13.8275 3.6245 13.8318C3.86552 13.836 4.09878 13.7463 4.27515 13.5814L8.00523 9.84214L11.7328 13.5827C11.9092 13.7475 12.1425 13.8373 12.3835 13.833C12.6245 13.8288 12.8545 13.7308 13.0249 13.5598C13.1954 13.3888 13.293 13.1581 13.2973 12.9164C13.3015 12.6746 13.2121 12.4406 13.0477 12.2637L9.3226 8.52312L13.049 4.78381Z" fill="#191919"/>
</svg>
