<svg width="48" height="48" viewBox="0 0 48 48" fill="none" xmlns="http://www.w3.org/2000/svg">
<circle cx="24" cy="24" r="24" fill="#191919"/>
<path d="M30.2368 17.921C28.9968 15.8201 27.2365 14.0742 25.1255 12.8515L24.7499 12.6343L24.3744 12.8515C22.2275 14.0905 20.4447 15.8731 19.2056 18.0199C17.9664 20.1667 17.3146 22.602 17.3156 25.0808C17.3156 25.2423 17.3184 25.4063 17.3238 25.5683C17.3985 27.7647 18.2384 29.6128 19.7529 30.9129C20.9118 31.9078 22.3984 32.5152 24.0001 32.6601V35.2507H25.5001V23.2507H23.9999V31.1505C21.4657 30.8569 18.9434 29.0666 18.8229 25.5173C18.8179 25.3722 18.8154 25.2254 18.8154 25.0808C18.8198 22.9405 19.3665 20.8362 20.4042 18.9642C21.442 17.0923 22.9371 15.5138 24.7499 14.376C26.5628 15.5138 28.0578 17.0924 29.0955 18.9643C30.1332 20.8362 30.6798 22.9405 30.6843 25.0808C30.6843 25.2254 30.6818 25.3722 30.6768 25.5174C30.5804 28.3567 28.9468 30.0702 26.9997 30.7925V32.38C28.0101 32.0936 28.947 31.5932 29.7469 30.9128C31.2614 29.6127 32.1014 27.7646 32.176 25.5683C32.1815 25.4063 32.1843 25.2422 32.1843 25.0808C32.1856 22.5632 31.5132 20.0911 30.2368 17.921Z" fill="white"/>
</svg>
