<?xml version="1.0" standalone="no"?>
<!DOCTYPE svg PUBLIC "-//W3C//DTD SVG 20010904//EN"
 "http://www.w3.org/TR/2001/REC-SVG-20010904/DTD/svg10.dtd">
<svg version="1.0" xmlns="http://www.w3.org/2000/svg"
 width="512.000000pt" height="512.000000pt" viewBox="0 0 512.000000 512.000000"
 preserveAspectRatio="xMidYMid meet">

<g transform="translate(0.000000,512.000000) scale(0.100000,-0.100000)"
fill="#000000" stroke="none">
<path d="M1716 4484 c-317 -63 -579 -259 -726 -545 -110 -214 -140 -433 -94
-690 l6 -37 -43 -7 c-71 -12 -191 -58 -272 -104 -294 -169 -467 -511 -427
-848 12 -102 39 -203 72 -266 l19 -38 -25 -54 c-57 -125 -84 -307 -66 -449 38
-306 219 -559 495 -692 105 -51 176 -71 300 -84 123 -13 2977 -13 3115 0 124
12 194 29 296 71 263 109 464 338 550 624 24 80 27 107 28 245 1 165 -12 242
-59 359 -23 55 -23 55 -3 100 47 111 63 199 63 356 -1 181 -20 267 -95 420
-118 241 -334 423 -596 501 -72 21 -117 27 -235 31 l-145 6 -18 51 c-81 229
-319 432 -576 491 -110 25 -323 15 -410 -19 -11 -4 -24 10 -45 51 -112 215
-318 393 -558 483 -153 57 -390 76 -551 44z m369 -159 c268 -56 497 -236 622
-490 24 -49 51 -96 60 -102 25 -19 58 -16 137 13 96 36 246 44 347 20 232 -57
393 -209 475 -448 38 -112 31 -109 208 -101 136 5 160 3 241 -17 320 -80 548
-323 604 -644 19 -102 12 -254 -15 -335 -3 -9 -30 12 -77 60 -88 92 -177 156
-288 209 -128 61 -220 82 -385 87 l-140 5 -18 52 c-82 232 -320 433 -580 491
-94 21 -291 16 -371 -9 -27 -8 -51 -12 -53 -7 -2 5 -26 49 -55 97 -63 107
-209 259 -314 328 -165 108 -321 155 -533 163 -171 6 -283 -13 -424 -70 -140
-57 -229 -119 -355 -244 -62 -63 -115 -113 -116 -111 -2 2 -8 47 -15 101 -35
295 94 600 331 782 109 84 262 154 382 174 86 14 252 12 332 -4z m45 -810 c78
-21 211 -81 277 -126 63 -43 166 -142 211 -203 21 -27 60 -95 87 -150 63 -128
71 -131 193 -91 359 119 710 -66 831 -437 12 -36 29 -72 38 -80 12 -10 62 -13
197 -13 172 0 185 -2 266 -29 265 -89 451 -280 530 -546 31 -102 38 -268 16
-369 -66 -311 -279 -535 -591 -623 l-80 -23 -1520 -3 c-992 -2 -1553 1 -1615
7 -308 33 -554 238 -629 523 -28 104 -34 186 -21 280 24 174 81 288 210 419
73 73 101 94 180 132 91 45 206 77 273 77 43 0 79 20 95 52 11 23 9 40 -14
125 -35 131 -37 316 -5 438 90 338 366 594 703 654 78 14 291 6 368 -14z
m-1200 -511 c-59 -171 -70 -353 -34 -554 l6 -35 -79 -19 c-86 -20 -215 -76
-290 -127 -26 -18 -78 -61 -115 -97 l-66 -63 -11 33 c-21 64 -33 184 -27 254
25 278 191 506 445 613 43 18 143 46 183 50 4 1 -2 -24 -12 -55z"/>
</g>
</svg>
