<?xml version="1.0" standalone="no"?>
<!DOCTYPE svg PUBLIC "-//W3C//DTD SVG 20010904//EN"
 "http://www.w3.org/TR/2001/REC-SVG-20010904/DTD/svg10.dtd">
<svg version="1.0" xmlns="http://www.w3.org/2000/svg"
 width="512.000000pt" height="512.000000pt" viewBox="0 0 512.000000 512.000000"
 preserveAspectRatio="xMidYMid meet">

<g transform="translate(0.000000,512.000000) scale(0.100000,-0.100000)"
fill="#000000" stroke="none">
<path d="M3145 4784 c-23 -25 -25 -35 -25 -125 0 -111 10 -142 51 -160 37 -15
82 2 98 37 6 14 11 69 11 123 0 90 -2 100 -25 125 -16 17 -34 26 -55 26 -21 0
-39 -9 -55 -26z"/>
<path d="M4343 4307 c-88 -88 -103 -108 -103 -135 0 -44 38 -82 82 -82 27 0
47 15 135 103 88 88 103 108 103 135 0 22 -9 41 -25 57 -16 16 -35 25 -57 25
-27 0 -47 -15 -135 -103z"/>
<path d="M3175 4314 c-271 -49 -511 -188 -671 -387 -32 -39 -61 -76 -65 -80
-3 -5 -44 12 -90 37 -467 251 -1037 113 -1325 -320 -63 -94 -95 -164 -131
-283 -23 -76 -26 -104 -27 -241 -1 -85 3 -176 7 -201 l9 -45 -88 -22 c-243
-60 -453 -233 -555 -457 -55 -122 -73 -208 -73 -345 0 -146 16 -222 75 -349
131 -283 422 -479 717 -484 87 -2 95 0 113 22 26 32 24 77 -4 105 -19 19 -38
24 -107 29 -261 19 -470 162 -576 393 -88 189 -84 388 12 582 65 133 163 231
294 295 95 47 205 77 281 77 31 0 47 7 70 29 34 35 35 46 8 131 -30 93 -37
270 -15 381 74 368 389 642 767 666 295 18 572 -109 752 -348 14 -19 48 -78
75 -130 61 -119 70 -124 184 -85 233 78 471 25 639 -143 83 -84 125 -151 158
-256 34 -105 38 -107 195 -99 152 8 254 -8 373 -57 313 -131 506 -470 452
-798 -55 -344 -346 -611 -692 -637 -97 -7 -122 -17 -138 -55 -16 -39 3 -83 42
-100 68 -27 287 14 427 81 106 51 161 88 246 169 256 246 347 605 237 937 -52
155 -163 316 -284 413 -37 29 -67 54 -67 57 0 2 11 37 25 79 30 89 55 243 55
340 -1 293 -139 613 -350 808 -260 241 -621 351 -955 291z m417 -173 c295 -77
533 -283 651 -561 92 -219 99 -433 22 -687 -9 -27 -4 -27 -57 -5 -83 36 -183
55 -316 61 l-134 6 -22 55 c-34 83 -91 166 -166 240 -161 162 -364 239 -590
227 -58 -3 -127 -13 -155 -21 -27 -8 -50 -14 -51 -13 0 1 -19 34 -42 72 -22
39 -70 105 -107 147 l-66 78 44 57 c147 189 351 311 601 359 98 19 288 11 388
-15z"/>
<path d="M4665 3264 c-27 -30 -31 -51 -14 -87 17 -37 50 -47 149 -47 99 0 132
10 149 47 17 36 13 57 -14 87 -23 25 -28 26 -135 26 -107 0 -112 -1 -135 -26z"/>
<path d="M2359 2555 c-49 -27 -258 -463 -325 -680 -79 -254 9 -473 223 -556
81 -31 205 -31 286 0 214 83 302 302 223 556 -43 139 -109 293 -209 488 -69
136 -97 182 -118 193 -34 17 -47 17 -80 -1z m118 -392 c71 -149 133 -309 152
-393 16 -68 13 -120 -10 -170 -43 -96 -117 -144 -219 -144 -102 0 -176 48
-219 144 -34 75 -27 140 36 315 38 107 171 395 183 395 4 0 39 -66 77 -147z"/>
<path d="M3159 1755 c-49 -27 -258 -463 -325 -680 -79 -254 9 -473 223 -556
81 -31 205 -31 286 0 214 83 302 302 223 556 -43 139 -109 293 -209 488 -69
136 -97 182 -118 193 -34 17 -47 17 -80 -1z m118 -392 c71 -149 133 -309 152
-393 16 -68 13 -120 -10 -170 -43 -96 -117 -144 -219 -144 -102 0 -176 48
-219 144 -34 75 -27 140 36 315 38 107 171 395 183 395 4 0 39 -66 77 -147z"/>
<path d="M1639 1595 c-49 -27 -258 -463 -325 -680 -79 -254 9 -473 223 -556
81 -31 205 -31 286 0 214 83 302 302 223 556 -43 139 -109 293 -209 488 -69
136 -97 182 -118 193 -34 17 -47 17 -80 -1z m118 -392 c71 -149 133 -309 152
-393 16 -68 13 -120 -10 -170 -43 -96 -117 -144 -219 -144 -102 0 -176 48
-219 144 -34 75 -27 140 36 315 38 107 171 395 183 395 4 0 39 -66 77 -147z"/>
</g>
</svg>
