<svg width="40" height="40" viewBox="0 0 40 40" fill="none" xmlns="http://www.w3.org/2000/svg">
<path d="M12.6933 33.3331C11.9522 33.3331 11.3183 33.0693 10.7916 32.5415C10.2649 32.0137 10.001 31.3809 9.99993 30.6431V9.9998H9.1666C8.92993 9.9998 8.73215 9.9198 8.57326 9.7598C8.41437 9.5998 8.33437 9.40147 8.33326 9.1648C8.33215 8.92814 8.41215 8.73036 8.57326 8.57147C8.73437 8.41258 8.93215 8.33314 9.1666 8.33314H14.9999C14.9999 7.98869 15.1277 7.68869 15.3833 7.43314C15.6388 7.17758 15.9388 7.0498 16.2833 7.0498H23.7166C24.061 7.0498 24.361 7.17758 24.6166 7.43314C24.8722 7.68869 24.9999 7.98869 24.9999 8.33314H30.8333C31.0699 8.33314 31.2677 8.41314 31.4266 8.57314C31.5855 8.73314 31.6655 8.93147 31.6666 9.16814C31.6677 9.4048 31.5877 9.60258 31.4266 9.76147C31.2655 9.92036 31.0677 9.9998 30.8333 9.9998H29.9999V30.6415C29.9999 31.3815 29.736 32.0148 29.2083 32.5415C28.6805 33.0681 28.0472 33.332 27.3083 33.3331H12.6933ZM28.3333 9.9998H11.6666V30.6415C11.6666 30.9404 11.7627 31.1859 11.9549 31.3781C12.1472 31.5704 12.3933 31.6665 12.6933 31.6665H27.3083C27.6072 31.6665 27.8527 31.5704 28.0449 31.3781C28.2372 31.1859 28.3333 30.9404 28.3333 30.6415V9.9998ZM17.1799 28.3331C17.4166 28.3331 17.6149 28.2531 17.7749 28.0931C17.9349 27.9331 18.0144 27.7354 18.0133 27.4998V14.1665C18.0133 13.9298 17.9333 13.732 17.7733 13.5731C17.6133 13.4142 17.4149 13.3342 17.1783 13.3331C16.9416 13.332 16.7438 13.412 16.5849 13.5731C16.426 13.7342 16.3466 13.932 16.3466 14.1665V27.4998C16.3466 27.7365 16.4266 27.9343 16.5866 28.0931C16.7466 28.2531 16.9444 28.3331 17.1799 28.3331ZM22.8216 28.3331C23.0583 28.3331 23.256 28.2531 23.4149 28.0931C23.5738 27.9331 23.6533 27.7354 23.6533 27.4998V14.1665C23.6533 13.9298 23.5733 13.732 23.4133 13.5731C23.2533 13.4131 23.0555 13.3331 22.8199 13.3331C22.5833 13.3331 22.3849 13.4131 22.2249 13.5731C22.0649 13.7331 21.9855 13.9309 21.9866 14.1665V27.4998C21.9866 27.7365 22.0666 27.9343 22.2266 28.0931C22.3866 28.252 22.5849 28.332 22.8216 28.3331Z" fill="#191919"/>
</svg>
