<svg width="134" height="134" viewBox="0 0 134 134" fill="none" xmlns="http://www.w3.org/2000/svg">
<path d="M41.6596 112.157C39.1619 112.157 37.115 111.29 35.5188 109.558C33.9226 107.825 33.1225 105.714 33.1183 103.225V52.5661L22.7534 28.5364H14.2741C13.3933 28.5364 12.6552 28.2386 12.0597 27.6432C11.4642 27.0477 11.1665 26.3116 11.1665 25.435C11.1665 24.5583 11.4642 23.8202 12.0597 23.2205C12.6552 22.6209 13.3913 22.3253 14.2679 22.3335H23.6032C24.608 22.3335 25.5323 22.6189 26.3758 23.1895C27.2153 23.7561 27.8438 24.4859 28.2615 25.3791L36.474 44.5211H117.737C119.652 44.5211 121.108 45.3254 122.104 46.934C123.101 48.5426 123.148 50.1801 122.247 51.8466L107.317 81.1798C111.315 81.5271 114.661 83.1854 117.353 86.1545C120.041 89.1194 121.385 92.6178 121.385 96.6496C121.385 100.934 119.896 104.589 116.919 107.616C113.933 110.643 110.304 112.157 106.033 112.157C101.686 112.157 98.0165 110.643 95.0226 107.616C92.0287 104.589 90.5317 100.934 90.5317 96.6496C90.5317 94.6399 90.8687 92.7812 91.5428 91.0733C92.2209 89.3655 93.1845 87.8437 94.4333 86.508L65.404 83.9338L49.897 107.07C48.9541 108.505 47.7549 109.711 46.2993 110.687C44.8396 111.667 43.293 112.157 41.6596 112.157ZM100.419 80.9627L115.771 50.7239H39.0854L47.0747 69.3324C47.9431 71.4 49.3325 73.1327 51.243 74.5304C53.1535 75.9281 55.5333 76.7675 58.3824 77.0487L100.419 80.9627ZM41.6968 105.799C42.5404 105.799 43.5618 105.063 44.761 103.591L58.4941 83.2888C54.301 82.7719 50.877 81.6553 48.2222 79.9392C45.5633 78.2272 43.5494 75.9405 42.1807 73.0789L39.3211 66.3984V103.256C39.3211 104.029 39.5279 104.645 39.9414 105.104C40.355 105.567 40.9401 105.799 41.6968 105.799ZM105.884 106.072C108.572 106.072 110.794 105.168 112.552 103.361C114.309 101.554 115.188 99.3561 115.188 96.7675C115.188 94.0796 114.309 91.8569 112.552 90.0995C110.794 88.342 108.572 87.4633 105.884 87.4633C103.299 87.4633 101.101 88.342 99.2901 90.0995C97.4789 91.8569 96.5753 94.0796 96.5795 96.7675C96.5795 99.352 97.483 101.55 99.2901 103.361C101.097 105.172 103.295 106.076 105.884 106.072Z" fill="#565656"/>
</svg>
