<svg width="270" height="204" viewBox="0 0 270 204" fill="none" xmlns="http://www.w3.org/2000/svg">
<g clip-path="url(#clip0_139_2047)">
<path d="M106.839 42.5944C96.0795 34.2419 83.3498 28.8025 69.8771 26.8006L67.4809 26.446L65.9786 28.3463C57.3853 39.1951 51.8008 52.1158 49.7872 65.8083C47.7735 79.5009 49.4017 93.4823 54.5079 106.346C54.8402 107.184 55.1923 108.029 55.5541 108.859C60.4613 120.105 68.6241 127.969 79.1601 131.6C87.2227 134.379 96.1884 134.472 104.8 131.928L110.131 145.374L117.916 142.287L93.2218 80.0043L85.4354 83.0915L101.692 124.093C87.9345 127.785 71.159 123.683 63.2295 105.509C62.9051 104.767 62.5898 104.01 62.2923 103.259C57.911 92.1412 56.4178 80.0944 57.9518 68.243C59.4859 56.3917 63.9974 45.1222 71.0651 35.4861C82.8156 37.6611 93.8236 42.7775 103.062 50.3577C112.3 57.9379 119.467 67.735 123.895 78.8346C124.193 79.5849 124.482 80.3523 124.755 81.1158C130.097 96.0511 125.144 108.306 116.525 116.062L119.792 124.302C124.447 120.736 128.28 116.211 131.031 111.033C136.217 101.169 136.773 89.8479 132.641 78.2949C132.336 77.4427 132.013 76.5857 131.68 75.7475C126.506 62.6778 117.929 51.2307 106.839 42.5944Z" fill="#565656"/>
</g>
<g clip-path="url(#clip1_139_2047)">
<path d="M226.015 98.773C225.009 85.1895 220.521 72.0944 212.982 60.7504L211.64 58.7337L209.223 58.8913C195.411 59.7784 182.077 64.2875 170.562 71.9648C159.047 79.6422 149.757 90.2169 143.627 102.625C143.227 103.433 142.835 104.261 142.462 105.085C137.399 116.262 137.028 127.591 141.39 137.846C144.728 145.694 150.665 152.413 158.322 157.102L151.91 170.068L159.417 173.78L189.118 113.723L181.61 110.01L162.058 149.547C150.101 141.805 141.908 126.602 150.09 108.54C150.424 107.802 150.775 107.061 151.133 106.337C156.453 95.6365 164.397 86.4578 174.224 79.6578C184.051 72.8578 195.44 68.6581 207.329 67.4507C213.586 77.632 217.161 89.2325 217.721 101.169C218.282 113.106 215.809 124.991 210.534 135.714C210.176 136.437 209.8 137.166 209.416 137.88C201.906 151.852 189.489 156.384 177.957 155.18L174.028 163.125C179.793 164.192 185.721 164.007 191.408 162.581C202.206 159.823 210.984 152.653 216.793 141.845C217.222 141.048 217.642 140.234 218.041 139.426C224.279 126.829 227.033 112.793 226.015 98.773Z" fill="#565656"/>
</g>
<defs>
<clipPath id="clip0_139_2047">
<rect width="134" height="134" fill="white" transform="translate(0 49.3889) rotate(-21.6277)"/>
</clipPath>
<clipPath id="clip1_139_2047">
<rect width="134" height="134" fill="white" transform="translate(149.401 24.0002) rotate(26.3143)"/>
</clipPath>
</defs>
</svg>
