<svg width="24" height="24" viewBox="0 0 24 24" fill="none" xmlns="http://www.w3.org/2000/svg">
<path fill-rule="evenodd" clip-rule="evenodd" d="M18.955 1.25C18.522 1.25 18.125 1.25 17.803 1.293C17.447 1.341 17.072 1.453 16.763 1.763C16.454 2.073 16.341 2.447 16.293 2.803C16.25 3.126 16.25 3.523 16.25 3.955V17.045C16.25 17.478 16.25 17.875 16.293 18.197C16.341 18.553 16.453 18.928 16.763 19.237C17.073 19.546 17.447 19.659 17.803 19.707C18.126 19.75 18.523 19.75 18.955 19.75H19.045C19.478 19.75 19.875 19.75 20.197 19.707C20.553 19.659 20.928 19.547 21.237 19.237C21.546 18.927 21.659 18.553 21.707 18.197C21.75 17.874 21.75 17.477 21.75 17.045V3.955C21.75 3.522 21.75 3.125 21.707 2.803C21.659 2.447 21.547 2.072 21.237 1.763C20.927 1.454 20.553 1.341 20.197 1.293C19.874 1.25 19.477 1.25 19.045 1.25H18.955ZM17.825 2.822L17.823 2.823L17.822 2.826L17.817 2.836C17.7979 2.88994 17.7855 2.94603 17.78 3.003C17.752 3.213 17.75 3.507 17.75 4V17C17.75 17.493 17.752 17.787 17.78 17.997C17.7862 18.0576 17.8004 18.1171 17.822 18.174L17.823 18.177L17.826 18.178L17.829 18.18L17.836 18.183C17.858 18.192 17.906 18.207 18.003 18.22C18.213 18.248 18.507 18.25 19 18.25C19.493 18.25 19.787 18.248 19.997 18.22C20.0576 18.2138 20.1171 18.1996 20.174 18.178L20.177 18.177L20.178 18.174L20.183 18.164C20.2021 18.1101 20.2145 18.054 20.22 17.997C20.248 17.787 20.25 17.493 20.25 17V4C20.25 3.507 20.248 3.213 20.22 3.003C20.2138 2.94242 20.1996 2.88292 20.178 2.826L20.177 2.823L20.174 2.822L20.164 2.817C20.1101 2.79789 20.054 2.78546 19.997 2.78C19.787 2.752 19.493 2.75 19 2.75C18.507 2.75 18.213 2.752 18.003 2.78C17.9424 2.78624 17.8819 2.80036 17.825 2.822ZM11.955 4.25H12.045C12.478 4.25 12.875 4.25 13.197 4.293C13.553 4.341 13.928 4.453 14.237 4.763C14.546 5.073 14.659 5.447 14.707 5.803C14.75 6.126 14.75 6.523 14.75 6.955V17.045C14.75 17.478 14.75 17.875 14.707 18.197C14.659 18.553 14.547 18.928 14.237 19.237C13.927 19.546 13.553 19.659 13.197 19.707C12.874 19.75 12.477 19.75 12.045 19.75H11.955C11.523 19.75 11.125 19.75 10.803 19.707C10.447 19.659 10.072 19.547 9.763 19.237C9.454 18.927 9.341 18.553 9.293 18.197C9.25 17.874 9.25 17.477 9.25 17.045V6.955C9.25 6.522 9.25 6.125 9.293 5.803C9.341 5.447 9.453 5.072 9.763 4.763C10.073 4.454 10.447 4.341 10.803 4.293C11.126 4.25 11.523 4.25 11.955 4.25ZM10.823 5.823L10.826 5.822L10.823 18.177L10.822 18.174L10.817 18.164C10.7979 18.1101 10.7855 18.054 10.78 17.997C10.752 17.787 10.75 17.493 10.75 17V7C10.75 6.507 10.752 6.213 10.78 6.003C10.7862 5.94242 10.8004 5.88292 10.822 5.826L10.823 5.823ZM10.823 18.177L10.826 5.822L10.829 5.82L10.836 5.817C10.8899 5.79789 10.946 5.78546 11.003 5.78C11.213 5.752 11.507 5.75 12 5.75C12.493 5.75 12.787 5.752 12.997 5.78C13.0576 5.78624 13.1171 5.80036 13.174 5.822L13.177 5.823L13.178 5.826L13.183 5.836C13.192 5.858 13.207 5.906 13.22 6.003C13.248 6.213 13.25 6.507 13.25 7V17C13.25 17.493 13.248 17.787 13.22 17.997C13.2138 18.0576 13.1996 18.1171 13.178 18.174L13.177 18.177L13.174 18.178L13.164 18.183C13.1101 18.2021 13.054 18.2145 12.997 18.22C12.787 18.248 12.493 18.25 12 18.25C11.507 18.25 11.213 18.248 11.003 18.22C10.9424 18.2138 10.8829 18.1996 10.826 18.178L10.823 18.177ZM4.955 8.25C4.522 8.25 4.125 8.25 3.803 8.293C3.447 8.341 3.072 8.453 2.763 8.763C2.454 9.073 2.341 9.447 2.293 9.803C2.25 10.126 2.25 10.523 2.25 10.955V17.045C2.25 17.478 2.25 17.875 2.293 18.197C2.341 18.553 2.453 18.928 2.763 19.237C3.073 19.546 3.447 19.659 3.803 19.707C4.126 19.75 4.523 19.75 4.955 19.75H5.045C5.478 19.75 5.875 19.75 6.197 19.707C6.553 19.659 6.928 19.547 7.237 19.237C7.546 18.927 7.659 18.553 7.707 18.197C7.75 17.874 7.75 17.477 7.75 17.045V10.955C7.75 10.522 7.75 10.125 7.707 9.803C7.659 9.447 7.547 9.072 7.237 8.763C6.927 8.454 6.553 8.341 6.197 8.293C5.874 8.25 5.477 8.25 5.045 8.25H4.955ZM3.825 9.822L3.823 9.823L3.822 9.826L3.817 9.836C3.79789 9.88995 3.78546 9.94603 3.78 10.003C3.752 10.213 3.75 10.507 3.75 11V17C3.75 17.493 3.752 17.787 3.78 17.997C3.78624 18.0576 3.80036 18.1171 3.822 18.174V18.176L3.826 18.178L3.836 18.183C3.858 18.192 3.906 18.207 4.003 18.22C4.213 18.248 4.507 18.25 5 18.25C5.493 18.25 5.787 18.248 5.997 18.22C6.05758 18.2138 6.11708 18.1996 6.174 18.178L6.177 18.177L6.178 18.174L6.18 18.17L6.183 18.164C6.20211 18.1101 6.21454 18.054 6.22 17.997C6.248 17.787 6.25 17.493 6.25 17V11C6.25 10.507 6.248 10.213 6.22 10.003C6.21376 9.94242 6.19964 9.88292 6.178 9.826L6.177 9.823L6.174 9.822L6.164 9.817C6.11006 9.79789 6.05397 9.78546 5.997 9.78C5.787 9.752 5.493 9.75 5 9.75C4.507 9.75 4.213 9.752 4.003 9.78C3.94242 9.78624 3.88192 9.80036 3.825 9.822Z" fill="#191919"/>
<path d="M3 21.25C2.80109 21.25 2.61032 21.329 2.46967 21.4697C2.32902 21.6103 2.25 21.8011 2.25 22C2.25 22.1989 2.32902 22.3897 2.46967 22.5303C2.61032 22.671 2.80109 22.75 3 22.75H21C21.1989 22.75 21.3897 22.671 21.5303 22.5303C21.671 22.3897 21.75 22.1989 21.75 22C21.75 21.8011 21.671 21.6103 21.5303 21.4697C21.3897 21.329 21.1989 21.25 21 21.25H3Z" fill="#191919"/>
</svg>
