<svg width="24" height="24" viewBox="0 0 24 24" fill="none" xmlns="http://www.w3.org/2000/svg">
<path fill-rule="evenodd" clip-rule="evenodd" d="M12 1.25C11.292 1.25 10.649 1.453 9.95 1.792C9.276 2.12 8.496 2.604 7.523 3.208L5.456 4.491C4.536 5.063 3.797 5.521 3.229 5.956C2.64 6.406 2.188 6.866 1.861 7.463C1.535 8.058 1.389 8.692 1.318 9.441C1.25 10.166 1.25 11.054 1.25 12.167V13.78C1.25 15.684 1.25 17.187 1.403 18.362C1.559 19.567 1.889 20.54 2.633 21.309C3.38 22.082 4.33 22.428 5.508 22.591C6.648 22.75 8.106 22.75 9.942 22.75H14.058C15.894 22.75 17.352 22.75 18.492 22.591C19.669 22.428 20.62 22.082 21.368 21.309C22.111 20.54 22.441 19.567 22.598 18.362C22.75 17.187 22.75 15.684 22.75 13.78V12.167C22.75 11.054 22.75 10.167 22.682 9.441C22.612 8.691 22.465 8.058 22.139 7.463C21.812 6.866 21.359 6.407 20.771 5.956C20.203 5.52 19.465 5.063 18.544 4.491L16.477 3.208C15.504 2.604 14.724 2.12 14.049 1.792C13.352 1.452 12.709 1.25 12 1.25Z" fill="#191919"/>
<path d="M11.25 18C11.25 18.1989 11.329 18.3897 11.4697 18.5303C11.6103 18.671 11.8011 18.75 12 18.75C12.1989 18.75 12.3897 18.671 12.5303 18.5303C12.671 18.3897 12.75 18.1989 12.75 18V15C12.75 14.8011 12.671 14.6103 12.5303 14.4697C12.3897 14.329 12.1989 14.25 12 14.25C11.8011 14.25 11.6103 14.329 11.4697 14.4697C11.329 14.6103 11.25 14.8011 11.25 15V18Z" fill="#FBFBF7"/>
</svg>
