<svg width="64" height="64" viewBox="0 0 64 64" fill="none" xmlns="http://www.w3.org/2000/svg">
<path d="M37.3335 53.3333C37.3335 54.7478 36.7716 56.1044 35.7714 57.1046C34.7712 58.1048 33.4147 58.6667 32.0002 58.6667H29.3335C27.919 58.6667 26.5625 58.1048 25.5623 57.1046C24.5621 56.1044 24.0002 54.7478 24.0002 53.3333H26.6668C26.6668 54.0406 26.9478 54.7189 27.4479 55.219C27.948 55.7191 28.6263 56 29.3335 56H32.0002C32.7074 56 33.3857 55.7191 33.8858 55.219C34.3859 54.7189 34.6668 54.0406 34.6668 53.3333H37.3335ZM40.0002 45.3333C40.0002 46.7478 39.4383 48.1044 38.4381 49.1046C37.4379 50.1048 36.0813 50.6667 34.6668 50.6667H26.6668C25.2523 50.6667 23.8958 50.1048 22.8956 49.1046C21.8954 48.1044 21.3335 46.7478 21.3335 45.3333V40C16.5335 36.8533 13.3335 31.4667 13.3335 25.3333C13.3335 20.7362 15.1597 16.3274 18.4103 13.0768C21.6609 9.82618 26.0697 8 30.6668 8C35.2639 8 39.6727 9.82618 42.9233 13.0768C46.174 16.3274 48.0002 20.7362 48.0002 25.3333C48.0002 31.4667 44.8002 36.8533 40.0002 40V45.3333ZM24.0002 45.3333C24.0002 46.0406 24.2811 46.7189 24.7812 47.219C25.2813 47.7191 25.9596 48 26.6668 48H34.6668C35.3741 48 36.0524 47.7191 36.5524 47.219C37.0525 46.7189 37.3335 46.0406 37.3335 45.3333V38.4C42.0802 36 45.3335 31.04 45.3335 25.3333C45.3335 21.4435 43.7883 17.713 41.0377 14.9624C38.2872 12.2119 34.5567 10.6667 30.6668 10.6667C26.777 10.6667 23.0465 12.2119 20.2959 14.9624C17.5454 17.713 16.0002 21.4435 16.0002 25.3333C16.0002 31.04 19.2535 36 24.0002 38.4V45.3333Z" fill="#191919"/>
</svg>
