<svg width="87" height="87" viewBox="0 0 87 87" fill="none" xmlns="http://www.w3.org/2000/svg">
<circle cx="43.5" cy="43.5" r="42" stroke="#191919" stroke-width="3" stroke-dasharray="10 10"/>
<path d="M43.5 28.6831C43.9476 28.6831 44.3769 28.8608 44.6934 29.1772C45.0098 29.4937 45.1875 29.9231 45.1875 30.3706V41.8081H56.625C57.0726 41.8081 57.5019 41.9858 57.8184 42.3022C58.1348 42.6187 58.3125 43.0481 58.3125 43.4956C58.3125 43.9432 58.1348 44.3725 57.8184 44.689C57.5019 45.0054 57.0726 45.1831 56.625 45.1831H45.1875V56.6206C45.1875 57.0682 45.0098 57.4975 44.6934 57.814C44.3769 58.1304 43.9476 58.3081 43.5 58.3081C43.0524 58.3081 42.6231 58.1304 42.3066 57.814C41.9902 57.4975 41.8125 57.0682 41.8125 56.6206V45.1831H30.375C29.9274 45.1831 29.4981 45.0054 29.1816 44.689C28.8652 44.3725 28.6875 43.9432 28.6875 43.4956C28.6875 43.0481 28.8652 42.6187 29.1816 42.3022C29.4981 41.9858 29.9274 41.8081 30.375 41.8081H41.8125V30.3706C41.8125 29.9231 41.9902 29.4937 42.3066 29.1772C42.6231 28.8608 43.0524 28.6831 43.5 28.6831Z" fill="#191919" stroke="#191919"/>
</svg>
