<svg width="32" height="32" viewBox="0 0 32 32" fill="none" xmlns="http://www.w3.org/2000/svg">
<circle cx="16" cy="16" r="15.5" stroke="#191919"/>
<path d="M17.7904 23.5996C17.6705 23.7337 17.5356 23.855 17.3871 23.96C16.9816 24.2465 16.4969 24.4007 16.0004 24.4004H15.9994C15.5031 24.4006 15.019 24.2464 14.6136 23.96C14.4652 23.855 14.3302 23.7336 14.2103 23.5996H17.7904ZM16.0004 6.59961C17.6976 6.59969 19.3256 7.27445 20.5258 8.47461C21.7259 9.67483 22.3998 11.3027 22.3998 13V16.5283L22.4115 16.7139C22.4259 16.8366 22.4543 16.9571 22.4965 17.0732L22.5697 17.2441L24.2855 20.6758V20.6768C24.3235 20.7529 24.3411 20.8378 24.3373 20.9229C24.3334 21.0079 24.3078 21.0907 24.2631 21.1631C24.2183 21.2354 24.1557 21.2955 24.0814 21.3369C24.0071 21.3783 23.9234 21.4004 23.8383 21.4004H8.1615C8.07642 21.4003 7.99265 21.3783 7.91833 21.3369C7.84396 21.2955 7.7815 21.2355 7.73669 21.1631C7.69195 21.0907 7.66637 21.0079 7.66248 20.9229C7.65865 20.8379 7.67628 20.7529 7.71423 20.6768L9.43201 17.2432V17.2422C9.54261 17.0201 9.60021 16.7754 9.59998 16.5273V13C9.59998 11.3026 10.2747 9.67484 11.475 8.47461C12.6752 7.27447 14.3031 6.59961 16.0004 6.59961Z" stroke="#191919" stroke-width="1.2"/>
</svg>
