<svg width="106" height="106" viewBox="0 0 106 106" fill="none" xmlns="http://www.w3.org/2000/svg">
<path d="M91.0769 8H14.9231C11.0996 8 8 11.0996 8 14.9231V91.0769C8 94.9004 11.0996 98 14.9231 98H91.0769C94.9004 98 98 94.9004 98 91.0769V14.9231C98 11.0996 94.9004 8 91.0769 8Z" stroke="#565656" stroke-width="3.66667"/>
<path d="M35.6916 42.6154C39.5151 42.6154 42.6147 39.5159 42.6147 35.6924C42.6147 31.8689 39.5151 28.7693 35.6916 28.7693C31.8681 28.7693 28.7686 31.8689 28.7686 35.6924C28.7686 39.5159 31.8681 42.6154 35.6916 42.6154Z" stroke="#565656" stroke-width="3.66667"/>
<path d="M25.3076 80.6923L35.6922 63.3846L46.0768 80.6923L63.3845 53L80.6922 80.6923" stroke="#565656" stroke-width="3.66667" stroke-linecap="round" stroke-linejoin="round"/>
</svg>
