<svg width="33" height="32" viewBox="0 0 33 32" fill="none" xmlns="http://www.w3.org/2000/svg">
<path d="M4.90933 23.1055C4.43264 21.3275 4.3714 19.4637 4.73033 17.6582C5.08925 15.8528 5.85874 14.1541 6.97924 12.6936C8.09974 11.2331 9.54122 10.05 11.1922 9.23576C12.8431 8.42154 14.6592 7.99805 16.5 7.99805C18.3408 7.99805 20.1569 8.42154 21.8078 9.23576C23.4588 10.05 24.9003 11.2331 26.0208 12.6936C27.1413 14.1541 27.9107 15.8528 28.2697 17.6582C28.6286 19.4637 28.5674 21.3275 28.0907 23.1055" stroke="#191919" stroke-width="1.33333" stroke-linecap="round"/>
<path d="M15.4786 20.7748C14.8293 21.7215 15.2866 23.1641 16.5 23.9975C17.7133 24.8321 19.224 24.7415 19.8733 23.7961C20.5666 22.7881 22.9586 17.1201 24.4106 13.6135C24.684 12.9535 23.8773 12.3988 23.3573 12.8908C20.6053 15.5041 16.1706 19.7668 15.4786 20.7748Z" stroke="#191919" stroke-width="1.33333"/>
<path d="M16.5 7.99951V10.6662M24.9854 11.5142L23.1 13.3995M8.0147 11.5142L9.90003 13.3995M4.90936 23.1062L7.48403 22.4155M28.0907 23.1062L25.516 22.4155" stroke="#191919" stroke-width="1.33333" stroke-linecap="round"/>
</svg>
