<svg width="24" height="24" viewBox="0 0 24 24" fill="none" xmlns="http://www.w3.org/2000/svg">
<path d="M18.2368 5.92152C16.9968 3.82063 15.2365 2.07467 13.1255 0.851984L12.7499 0.634766L12.3744 0.851984C10.2275 2.09098 8.44473 3.87356 7.20558 6.02038C5.96643 8.1672 5.31455 10.6025 5.31555 13.0813C5.31555 13.2428 5.31837 13.4068 5.32385 13.5688C5.39847 15.7652 6.23843 17.6133 7.75291 18.9134C8.91185 19.9083 10.3984 20.5157 12.0001 20.6606V23.2512H13.5001V11.2512H11.9999C11.9999 23.6927 4.12299 14.6873 8.40424 6.96473C9.442 5.09281 10.9371 3.5143 12.7499 2.3765C14.5628 3.51432 16.0578 5.09284 17.0955 6.96476C18.1332 8.83668 18.6798 10.941 18.6843 13.0813C18.6843 13.2259 18.6818 13.3727 18.6768 13.5178C18.6167 15.2884 17.9589 17.39 17 17.5C15.5 17.6721 15 16.5 14.9997 16L14.9997 20.3805C16.0101 20.0941 16.947 19.5937 17.7469 18.9133C19.2614 17.6132 20.1014 15.7651 20.176 13.5688C20.1815 13.4068 20.1843 13.2427 20.1843 13.0812C20.1856 10.5636 19.5132 8.09156 18.2368 5.92152Z" fill="black"/>
</svg>
