<svg width="32" height="32" viewBox="0 0 32 32" fill="none" xmlns="http://www.w3.org/2000/svg">
<path d="M15.996 28.0004C13.3302 28.0004 11.1088 27.084 9.33196 25.2511C7.55507 23.4173 6.66663 21.1351 6.66663 18.4044C6.66663 17.1955 6.94218 15.9778 7.49329 14.7511C8.04351 13.5244 8.73107 12.3475 9.55596 11.2204C10.3826 10.0924 11.2742 9.02932 12.2306 8.0311C13.188 7.03199 14.0768 6.16265 14.8973 5.4231C15.0573 5.27999 15.232 5.16932 15.4213 5.0911C15.6097 5.01376 15.8026 4.9751 16 4.9751C16.1973 4.9751 16.3902 5.01376 16.5786 5.0911C16.7671 5.16843 16.9417 5.27954 17.1026 5.42443C17.9231 6.16221 18.812 7.0311 19.7693 8.0311C20.7266 9.02932 21.6182 10.092 22.444 11.2191C23.2697 12.3462 23.9577 13.5235 24.508 14.7511C25.0582 15.9787 25.3333 17.1964 25.3333 18.4044C25.3333 21.1351 24.4435 23.4173 22.664 25.2511C20.8826 27.084 18.6608 28.0004 15.996 28.0004ZM16 26.6671C18.3111 26.6671 20.2222 25.8835 21.7333 24.3164C23.2444 22.7493 24 20.7773 24 18.4004C24 16.7782 23.3275 14.9449 21.9826 12.9004C20.6377 10.856 18.6435 8.62265 16 6.20043C13.3555 8.62265 11.3613 10.856 10.0173 12.9004C8.67329 14.9449 8.00085 16.7782 7.99996 18.4004C7.99996 20.7782 8.75551 22.7507 10.2666 24.3178C11.7777 25.8849 13.6888 26.668 16 26.6671Z" fill="#191919"/>
</svg>
