<svg width="24" height="24" viewBox="0 0 24 24" fill="none" xmlns="http://www.w3.org/2000/svg">
<path d="M3.67906 13L3.15206 13.532C3.29252 13.6712 3.48229 13.7494 3.68006 13.7494C3.87783 13.7494 4.0676 13.6712 4.20806 13.532L3.67906 13ZM5.88806 11.866C6.02942 11.7257 6.10926 11.535 6.11001 11.3358C6.11076 11.1367 6.03236 10.9454 5.89206 10.804C5.82259 10.734 5.74001 10.6784 5.64905 10.6403C5.55808 10.6022 5.4605 10.5824 5.36189 10.5821C5.16272 10.5813 4.97142 10.6597 4.83006 10.8L5.88806 11.866ZM2.52806 10.8C2.38605 10.6639 2.19624 10.589 1.99953 10.5915C1.80282 10.594 1.61497 10.6736 1.47646 10.8133C1.33794 10.953 1.25986 11.1415 1.25904 11.3383C1.25822 11.535 1.33472 11.7242 1.47206 11.865L2.52806 10.8ZM18.6161 7.39201C18.6663 7.47858 18.7334 7.5542 18.8134 7.61443C18.8934 7.67466 18.9846 7.71828 19.0816 7.7427C19.1787 7.76712 19.2797 7.77186 19.3787 7.75664C19.4776 7.74142 19.5725 7.70654 19.6578 7.65407C19.743 7.6016 19.8169 7.53259 19.8751 7.45111C19.9332 7.36963 19.9745 7.27733 19.9964 7.17966C20.0183 7.08198 20.0205 6.9809 20.0027 6.88238C19.985 6.78386 19.9477 6.68989 19.8931 6.60601L18.6161 7.39201ZM12.0791 2.25001C7.03206 2.25001 2.92906 6.31101 2.92906 11.333H4.42906C4.42906 7.15101 7.84906 3.75001 12.0791 3.75001V2.25001ZM2.92906 11.333V13H4.42906V11.333H2.92906ZM4.20906 13.533L5.88806 11.866L4.83006 10.8L3.15006 12.467L4.20906 13.533ZM4.20906 12.468L2.52806 10.8L1.47106 11.865L3.15106 13.531L4.20906 12.468ZM19.8931 6.60801C19.072 5.27424 17.9226 4.17328 16.5548 3.41031C15.1869 2.64735 13.6453 2.24786 12.0791 2.25001V3.75001C13.3893 3.74748 14.6792 4.08107 15.8237 4.71888C16.9682 5.35669 17.93 6.27741 18.6171 7.39301L19.8931 6.60801Z" fill="#191919"/>
<path opacity="0.5" d="M20.313 10.9999L20.841 10.4669C20.7006 10.3279 20.511 10.25 20.3135 10.25C20.116 10.25 19.9264 10.3279 19.786 10.4669L20.313 10.9999ZM18.1 12.1329C18.0299 12.2021 17.9742 12.2845 17.936 12.3753C17.8978 12.4661 17.8778 12.5636 17.8772 12.6621C17.8761 12.8611 17.9541 13.0524 18.094 13.1939C18.2339 13.3353 18.4243 13.4155 18.6232 13.4166C18.8222 13.4177 19.0135 13.3398 19.155 13.1999L18.1 12.1329ZM21.473 13.1999C21.5426 13.2709 21.6257 13.3274 21.7174 13.3661C21.8092 13.4047 21.9076 13.4247 22.0072 13.4249C22.1067 13.4251 22.2052 13.4055 22.2971 13.3672C22.389 13.329 22.4723 13.2728 22.5422 13.202C22.6122 13.1312 22.6673 13.0472 22.7045 12.9549C22.7416 12.8625 22.76 12.7637 22.7586 12.6642C22.7572 12.5647 22.736 12.4665 22.6962 12.3753C22.6564 12.284 22.5989 12.2016 22.527 12.1329L21.473 13.1999ZM5.31798 16.6059C5.21349 16.4365 5.046 16.3156 4.85237 16.2698C4.65874 16.2239 4.45482 16.2569 4.28548 16.3614C4.11614 16.4659 3.99525 16.6333 3.94939 16.827C3.90354 17.0206 3.93649 17.2245 4.04098 17.3939L5.31798 16.6059ZM11.883 21.7499C16.945 21.7499 21.063 17.6919 21.063 12.6669H19.563C19.563 16.8469 16.133 20.2499 11.883 20.2499V21.7499ZM21.063 12.6669V10.9999H19.563V12.6669H21.063ZM19.786 10.4669L18.1 12.1329L19.155 13.1999L20.841 11.5329L19.786 10.4669ZM19.786 11.5329L21.473 13.1999L22.527 12.1329L20.841 10.4669L19.786 11.5329ZM4.04098 17.3939C4.86762 18.729 6.02224 19.8293 7.39492 20.592C8.76761 21.3546 10.3127 21.7532 11.883 21.7499V20.2499C10.5687 20.2532 9.27537 19.9201 8.12621 19.2823C6.97705 18.6444 6.0103 17.7231 5.31798 16.6059L4.04098 17.3939Z" fill="#191919"/>
</svg>
