<svg width="32" height="32" viewBox="0 0 32 32" fill="none" xmlns="http://www.w3.org/2000/svg">
<path d="M10.0191 26.4547C9.95222 26.3886 9.8991 26.3099 9.86284 26.223C9.82659 26.1362 9.80792 26.0431 9.80792 25.949C9.80792 25.855 9.82659 25.7618 9.86284 25.675C9.8991 25.5882 9.95222 25.5095 10.0191 25.4433L13.7217 21.7417C13.8201 21.6377 13.9476 21.5658 14.0874 21.5352C14.2273 21.5046 14.3731 21.5168 14.506 21.5702C14.6388 21.6236 14.7525 21.7157 14.8323 21.8346C14.9121 21.9534 14.9544 22.0935 14.9535 22.2367C14.9537 22.3332 14.9343 22.4288 14.8964 22.5176C14.8585 22.6063 14.8029 22.6865 14.7331 22.7531L11.0314 26.4556C10.9653 26.5225 10.8865 26.5756 10.7997 26.6119C10.7129 26.6482 10.6198 26.6668 10.5257 26.6668C10.4316 26.6668 10.3385 26.6482 10.2517 26.6119C10.1649 26.5756 10.0861 26.5225 10.02 26.4556L10.0191 26.4547ZM17.5513 22.953C17.4844 22.8869 17.4313 22.8082 17.395 22.7214C17.3588 22.6346 17.3401 22.5414 17.3401 22.4473C17.3401 22.3533 17.3588 22.2601 17.395 22.1733C17.4313 22.0865 17.4844 22.0078 17.5513 21.9416L20.27 19.2256H12.7156L8.98462 22.9539C8.91821 23.0203 8.83937 23.073 8.7526 23.109C8.66584 23.1449 8.57284 23.1634 8.47892 23.1634C8.385 23.1634 8.29201 23.1449 8.20524 23.109C8.11847 23.073 8.03963 23.0203 7.97322 22.9539C7.90681 22.8875 7.85413 22.8087 7.81819 22.7219C7.78225 22.6351 7.76375 22.5421 7.76375 22.4482C7.76375 22.3543 7.78225 22.2613 7.81819 22.1745C7.85413 22.0878 7.90681 22.0089 7.97322 21.9425L10.6928 19.2229H10.5728C9.20428 19.2229 7.89179 18.6793 6.92408 17.7116C5.95637 16.7439 5.41272 15.4314 5.41272 14.0628C5.41272 12.6943 5.95637 11.3818 6.92408 10.4141C7.89179 9.44638 9.20428 8.90273 10.5728 8.90273H10.6324H10.6297C10.7097 8.90273 10.7897 8.90895 10.8688 8.91251C12.081 6.76172 14.35 5.3335 16.9532 5.3335C17.8673 5.33326 18.7725 5.51312 19.617 5.86279C20.4616 6.21246 21.229 6.72509 21.8754 7.37141C22.5218 8.01772 23.0345 8.78506 23.3843 9.62957C23.7341 10.4741 23.914 11.3792 23.9139 12.2933V12.3067C24.6759 12.4944 25.3531 12.9319 25.8377 13.5493C26.3222 14.1666 26.5861 14.9284 26.5873 15.7133C26.5873 16.1738 26.4966 16.6298 26.3203 17.0553C26.1441 17.4808 25.8858 17.8674 25.5601 18.1931C25.2344 18.5187 24.8478 18.7771 24.4223 18.9533C23.9968 19.1296 23.5408 19.2203 23.0803 19.2203H22.2946L18.5636 22.9513C18.4975 23.0182 18.4187 23.0713 18.3319 23.1075C18.2451 23.1438 18.152 23.1625 18.0579 23.1625C17.9638 23.1625 17.8707 23.1438 17.7839 23.1075C17.6971 23.0713 17.6183 23.0182 17.5522 22.9513L17.5513 22.953ZM6.8996 14.0619C6.90031 15.0509 7.29341 15.9991 7.99259 16.6984C8.69178 17.3978 9.6399 17.7911 10.6288 17.792H23.0749C23.6263 17.7919 24.155 17.5728 24.5447 17.1829C24.9345 16.7929 25.1534 16.2641 25.1533 15.7128C25.1532 15.1615 24.934 14.6328 24.5441 14.243C24.1542 13.8532 23.6254 13.6343 23.074 13.6345C22.5612 13.6345 22.0928 13.8202 21.7302 14.1268L21.7329 14.1242C21.5878 14.243 21.4018 14.3001 21.215 14.2833C21.0282 14.2665 20.8554 14.1771 20.7338 14.0343C20.6122 13.8915 20.5515 13.7067 20.5646 13.5196C20.5778 13.3325 20.6638 13.158 20.8042 13.0337L20.805 13.0328C21.275 12.6328 21.8432 12.3656 22.451 12.2587L22.4723 12.2551C22.4618 11.0781 22.0759 9.9352 21.3707 8.99277C20.6655 8.05034 19.6779 7.35759 18.5517 7.01538C17.4255 6.67317 16.2195 6.69935 15.1092 7.09013C13.9989 7.48091 13.0424 8.21587 12.3788 9.18802L12.3663 9.20669C12.9069 9.39923 13.4116 9.68069 13.8594 10.0394L13.8497 10.0314C13.9977 10.1502 14.0925 10.323 14.1131 10.5117C14.1338 10.7003 14.0787 10.8895 13.9599 11.0375C13.8411 11.1855 13.6683 11.2803 13.4797 11.301C13.291 11.3217 13.1018 11.2665 12.9538 11.1477L12.9547 11.1486C12.2993 10.6185 11.4815 10.3301 10.6386 10.3318H10.6288H10.6297C9.64033 10.3321 8.69152 10.7251 7.99176 11.4245C7.292 12.1239 6.89853 13.0726 6.89783 14.0619H6.8996Z" fill="#191919"/>
</svg>
