<?xml version="1.0" standalone="no"?>
<!DOCTYPE svg PUBLIC "-//W3C//DTD SVG 20010904//EN"
 "http://www.w3.org/TR/2001/REC-SVG-20010904/DTD/svg10.dtd">
<svg version="1.0" xmlns="http://www.w3.org/2000/svg"
 width="512.000000pt" height="512.000000pt" viewBox="0 0 512.000000 512.000000"
 preserveAspectRatio="xMidYMid meet">

<g transform="translate(0.000000,512.000000) scale(0.100000,-0.100000)"
fill="#000000" stroke="none">
<path d="M1701 4489 c-246 -55 -447 -181 -603 -378 -72 -90 -159 -267 -188
-381 -36 -142 -38 -378 -4 -492 4 -13 -5 -18 -38 -23 -63 -11 -190 -59 -264
-100 -181 -102 -330 -284 -398 -488 -137 -414 57 -875 449 -1064 154 -74 367
-114 420 -79 34 23 47 58 34 94 -13 38 -38 49 -132 57 -308 24 -572 251 -643
552 -23 99 -21 252 5 347 81 295 321 498 631 535 69 8 88 14 103 32 21 27 20
44 -12 189 -123 560 324 1086 899 1057 127 -7 237 -34 344 -87 185 -90 342
-254 421 -440 25 -60 53 -90 84 -90 14 0 60 12 101 26 102 35 239 43 342 20
236 -52 419 -227 484 -460 27 -96 31 -99 193 -90 110 5 153 3 221 -10 158 -32
293 -103 403 -210 312 -305 328 -791 36 -1110 -79 -86 -150 -138 -254 -187
-106 -50 -183 -67 -330 -76 -106 -6 -122 -9 -142 -29 -43 -43 -19 -115 44
-130 38 -10 228 4 303 21 359 85 632 354 722 711 29 114 31 331 5 436 -43 174
-125 325 -241 446 -189 198 -391 288 -673 299 l-141 6 -21 57 c-46 126 -181
290 -301 368 -78 50 -195 99 -279 117 -119 25 -314 15 -402 -20 -12 -4 -27 14
-63 77 -142 253 -399 439 -691 499 -120 25 -309 24 -424 -2z"/>
<path d="M2428 2891 c-28 -22 -199 -360 -260 -516 -99 -248 -111 -385 -44
-519 171 -347 680 -270 747 113 25 142 -49 374 -239 744 -65 126 -94 173 -114
183 -37 19 -61 18 -90 -5z m122 -373 c84 -177 138 -320 157 -419 14 -69 14
-81 -1 -132 -32 -108 -113 -170 -226 -171 -78 0 -128 22 -183 83 -69 77 -73
175 -13 346 42 122 182 435 194 435 2 0 34 -64 72 -142z"/>
<path d="M3240 2097 c-31 -15 -195 -331 -268 -517 -101 -255 -115 -384 -53
-515 116 -250 445 -310 638 -117 102 102 140 237 109 384 -29 133 -90 288
-208 526 -88 179 -116 225 -138 237 -35 18 -48 18 -80 2z m84 -324 c166 -333
223 -546 172 -643 -47 -90 -119 -134 -216 -134 -147 0 -253 119 -237 268 7 72
66 239 142 405 80 176 88 191 92 191 1 0 23 -39 47 -87z"/>
<path d="M1628 1930 c-15 -11 -66 -101 -121 -213 -239 -481 -278 -682 -165
-859 135 -214 438 -248 616 -69 111 112 143 255 96 431 -61 223 -283 693 -340
719 -36 16 -58 14 -86 -9z m88 -301 c95 -189 177 -400 195 -503 28 -161 -74
-289 -231 -291 -74 0 -118 18 -170 68 -115 112 -90 262 112 690 28 59 53 107
54 107 2 0 20 -32 40 -71z"/>
</g>
</svg>
