<?xml version="1.0" standalone="no"?>
<!DOCTYPE svg PUBLIC "-//W3C//DTD SVG 20010904//EN"
 "http://www.w3.org/TR/2001/REC-SVG-20010904/DTD/svg10.dtd">
<svg version="1.0" xmlns="http://www.w3.org/2000/svg"
 width="512.000000pt" height="512.000000pt" viewBox="0 0 512.000000 512.000000"
 preserveAspectRatio="xMidYMid meet">

<g transform="translate(0.000000,512.000000) scale(0.100000,-0.100000)"
fill="#000000" stroke="none">
<path d="M3141 4854 c-18 -23 -21 -41 -21 -129 0 -88 3 -106 21 -129 16 -20
29 -26 59 -26 30 0 43 6 59 26 18 23 21 41 21 129 0 88 -3 106 -21 129 -16 20
-29 26 -59 26 -30 0 -43 -6 -59 -26z"/>
<path d="M4455 4480 c-11 -4 -64 -53 -117 -108 -107 -109 -116 -130 -75 -178
18 -20 32 -27 58 -26 29 1 48 15 136 105 112 113 122 135 81 181 -27 29 -55
38 -83 26z"/>
<path d="M3130 4380 c-202 -44 -387 -140 -533 -280 -59 -55 -133 -142 -164
-189 -1 -2 -14 6 -30 17 -42 29 -140 77 -208 100 -204 69 -457 72 -653 6 -321
-108 -565 -367 -653 -694 -19 -70 -23 -111 -24 -230 0 -80 4 -168 9 -196 l8
-51 -45 -6 c-118 -16 -269 -89 -381 -184 -362 -305 -393 -850 -68 -1195 158
-167 377 -268 582 -268 67 0 79 3 98 23 29 31 29 77 -2 106 -19 18 -42 24
-122 32 -182 17 -297 71 -424 198 -142 143 -196 274 -194 476 0 101 5 132 26
198 37 111 95 202 180 283 115 109 242 167 402 184 139 14 149 32 110 187 -24
96 -26 119 -21 232 6 148 26 222 95 354 50 95 151 213 237 277 200 147 473
199 725 136 98 -24 254 -107 337 -178 90 -78 147 -152 207 -266 25 -49 51 -94
58 -99 28 -22 61 -21 123 2 126 48 294 50 420 6 89 -31 163 -79 235 -151 72
-73 112 -139 150 -249 17 -50 34 -81 51 -94 25 -18 33 -18 118 -7 70 9 113 9
179 0 359 -47 619 -298 673 -650 48 -314 -151 -656 -456 -783 -85 -36 -130
-46 -242 -57 -87 -8 -100 -12 -120 -35 -29 -33 -29 -65 -2 -99 19 -24 27 -26
92 -26 353 0 690 232 827 568 48 119 65 213 64 352 -2 183 -43 319 -142 474
-43 68 -155 188 -220 238 l-34 25 26 82 c100 317 59 647 -115 930 -63 102
-205 252 -303 319 -137 95 -299 163 -460 191 -95 17 -318 12 -416 -9z m423
-155 c548 -113 885 -674 726 -1207 -11 -38 -24 -68 -29 -68 -5 0 -31 8 -57 19
-89 35 -203 54 -318 55 l-110 0 -49 98 c-100 206 -295 360 -524 414 -90 22
-257 21 -347 0 -66 -16 -71 -16 -80 0 -51 86 -115 176 -157 220 -56 59 -57 51
16 143 126 157 338 284 546 326 90 18 295 18 383 0z"/>
<path d="M4703 3364 c-29 -7 -63 -50 -63 -79 0 -12 9 -34 21 -49 20 -25 23
-26 139 -26 116 0 119 1 139 26 27 35 26 67 -3 100 -22 26 -28 28 -117 30 -52
1 -104 0 -116 -2z"/>
<path d="M1744 2483 c-12 -2 -29 -12 -38 -22 -17 -18 -346 -992 -346 -1022 0
-9 9 -28 21 -43 l20 -26 330 0 c192 0 329 -4 329 -9 0 -5 -45 -232 -100 -504
-55 -272 -100 -511 -100 -531 0 -46 29 -76 73 -76 18 0 40 6 49 12 14 11 938
1412 967 1466 17 32 13 58 -13 89 l-24 28 -285 3 -284 3 71 284 71 284 -21 28
c-12 15 -32 31 -45 34 -26 7 -639 9 -675 2z m548 -158 c3 -3 -27 -134 -66
-290 l-71 -284 21 -28 21 -28 267 -5 268 -5 -314 -477 c-172 -262 -314 -475
-316 -473 -2 2 29 165 70 363 l73 361 -21 28 c-11 15 -32 31 -45 34 -13 4
-160 7 -326 8 l-301 1 129 388 c71 213 131 393 134 400 3 9 60 12 238 12 129
0 236 -2 239 -5z"/>
<path d="M3146 1498 c-24 -22 -166 -297 -234 -453 -44 -102 -91 -248 -104
-325 -15 -84 0 -181 38 -257 35 -68 117 -146 191 -181 52 -24 70 -27 163 -27
93 0 111 3 163 27 166 78 260 258 229 438 -13 77 -60 223 -104 325 -68 156
-210 431 -234 453 -14 12 -38 22 -54 22 -16 0 -40 -10 -54 -22z m119 -350
c125 -264 182 -442 171 -532 -8 -68 -50 -133 -110 -171 -44 -27 -58 -30 -126
-30 -68 0 -82 3 -126 30 -60 38 -102 103 -110 171 -8 62 18 168 74 310 50 125
153 344 162 344 4 0 33 -55 65 -122z"/>
</g>
</svg>
