<?xml version="1.0" standalone="no"?>
<!DOCTYPE svg PUBLIC "-//W3C//DTD SVG 20010904//EN"
 "http://www.w3.org/TR/2001/REC-SVG-20010904/DTD/svg10.dtd">
<svg version="1.0" xmlns="http://www.w3.org/2000/svg"
 width="512.000000pt" height="512.000000pt" viewBox="0 0 512.000000 512.000000"
 preserveAspectRatio="xMidYMid meet">

<g transform="translate(0.000000,512.000000) scale(0.100000,-0.100000)"
fill="#000000" stroke="none">
<path d="M2506 4934 l-26 -27 0 -347 0 -347 26 -27 c42 -41 94 -32 122 21 17
31 17 675 0 706 -28 53 -80 62 -122 21z"/>
<path d="M843 4308 c-27 -13 -47 -59 -38 -90 9 -31 490 -514 527 -529 57 -23
121 34 103 93 -9 27 -478 503 -517 524 -31 16 -45 17 -75 2z"/>
<path d="M4195 4301 c-16 -10 -139 -129 -272 -263 -217 -218 -243 -247 -243
-276 0 -38 38 -82 70 -82 12 0 33 6 48 14 39 21 508 497 517 524 9 32 -11 77
-41 91 -34 15 -44 14 -79 -8z"/>
<path d="M2392 3990 c-374 -48 -717 -237 -948 -524 -440 -546 -427 -1315 31
-1848 204 -238 483 -401 805 -469 150 -32 410 -32 560 0 388 83 707 298 922
621 99 150 168 319 209 510 18 86 22 137 22 280 0 143 -4 194 -22 280 -124
582 -555 1013 -1131 1130 -120 24 -335 34 -448 20z m413 -175 c250 -51 459
-162 641 -337 193 -186 314 -407 371 -678 12 -61 17 -129 17 -240 0 -171 -14
-260 -65 -415 -121 -362 -433 -673 -797 -795 -152 -50 -242 -64 -412 -64 -170
0 -260 14 -412 64 -364 122 -677 433 -797 795 -160 482 -38 984 323 1333 200
193 425 304 706 348 107 17 317 11 425 -11z"/>
<path d="M186 2614 c-15 -16 -26 -38 -26 -54 0 -16 11 -38 26 -54 l27 -26 347
0 347 0 27 26 c34 35 34 73 0 108 l-27 26 -347 0 -347 0 -27 -26z"/>
<path d="M4186 2614 c-15 -16 -26 -38 -26 -54 0 -16 11 -38 26 -54 l27 -26
346 0 c335 0 348 1 369 20 40 38 37 93 -7 127 -12 9 -106 12 -362 13 l-346 0
-27 -26z"/>
<path d="M1315 1421 c-16 -10 -139 -129 -272 -263 -217 -218 -243 -247 -243
-276 0 -44 38 -82 82 -82 29 0 58 26 285 252 138 138 257 264 264 280 15 36
-2 81 -37 97 -34 15 -44 14 -79 -8z"/>
<path d="M3723 1428 c-27 -13 -47 -59 -38 -90 9 -31 490 -514 527 -529 57 -23
121 34 103 93 -9 27 -478 503 -517 524 -31 16 -45 17 -75 2z"/>
<path d="M2506 934 l-26 -27 0 -347 0 -347 26 -27 c42 -41 94 -32 122 21 17
31 17 675 0 706 -28 53 -80 62 -122 21z"/>
</g>
</svg>
