<svg width="24" height="24" viewBox="0 0 24 24" fill="none" xmlns="http://www.w3.org/2000/svg">
<path fill-rule="evenodd" clip-rule="evenodd" d="M16.325 14.8987L21.705 20.2787C21.8941 20.468 22.0003 20.7246 22.0002 20.9921C22.0001 21.2596 21.8937 21.5161 21.7045 21.7052C21.5153 21.8943 21.2587 22.0005 20.9912 22.0004C20.7236 22.0003 20.4671 21.894 20.278 21.7047L14.898 16.3247C13.2897 17.5704 11.2673 18.1566 9.24214 17.9641C7.21699 17.7716 5.34124 16.8148 3.99649 15.2884C2.65174 13.7619 1.939 11.7806 2.00326 9.74729C2.06753 7.71402 2.90396 5.7816 4.34242 4.34315C5.78087 2.9047 7.71329 2.06826 9.74656 2.004C11.7798 1.93973 13.7612 2.65248 15.2876 3.99723C16.814 5.34198 17.7708 7.21772 17.9634 9.24287C18.1559 11.268 17.5697 13.2905 16.324 14.8987M10 15.9997C11.5913 15.9997 13.1174 15.3676 14.2427 14.2424C15.3679 13.1172 16 11.591 16 9.99974C16 8.40845 15.3679 6.88232 14.2427 5.7571C13.1174 4.63189 11.5913 3.99974 10 3.99974C8.40871 3.99974 6.88259 4.63189 5.75737 5.7571C4.63215 6.88232 4.00001 8.40845 4.00001 9.99974C4.00001 11.591 4.63215 13.1172 5.75737 14.2424C6.88259 15.3676 8.40871 15.9997 10 15.9997Z" fill="#191919"/>
</svg>
