<svg width="48" height="48" viewBox="0 0 48 48" fill="none" xmlns="http://www.w3.org/2000/svg">
<circle cx="24" cy="24" r="24" fill="#191919"/>
<path d="M19 33H17.4C16.7635 33 16.153 32.7471 15.7029 32.2971C15.2529 31.847 15 31.2365 15 30.6V29M29 33H30.6C31.2365 33 31.847 32.7471 32.2971 32.2971C32.7471 31.847 33 31.2365 33 30.6V29M33 19V17.4C33 16.7635 32.7471 16.153 32.2971 15.7029C31.847 15.2529 31.2365 15 30.6 15H29M19 15H17.4C17.0848 15 16.7727 15.0621 16.4816 15.1827C16.1904 15.3033 15.9258 15.4801 15.7029 15.7029C15.4801 15.9258 15.3033 16.1904 15.1827 16.4816C15.0621 16.7727 15 17.0848 15 17.4V19M20.806 18.776L20.429 20.284C20.4202 20.319 20.402 20.351 20.3765 20.3765C20.351 20.402 20.319 20.4202 20.284 20.429L18.776 20.806C18.574 20.856 18.574 21.144 18.776 21.194L20.284 21.571C20.319 21.5798 20.351 21.598 20.3765 21.6235C20.402 21.649 20.4202 21.681 20.429 21.716L20.806 23.224C20.856 23.426 21.144 23.426 21.194 23.224L21.571 21.716C21.5798 21.681 21.598 21.649 21.6235 21.6235C21.649 21.598 21.681 21.5798 21.716 21.571L23.224 21.194C23.426 21.144 23.426 20.856 23.224 20.806L21.716 20.429C21.681 20.4202 21.649 20.402 21.6235 20.3765C21.598 20.351 21.5798 20.319 21.571 20.284L21.194 18.776C21.144 18.574 20.856 18.574 20.806 18.776ZM27 25L26.6 26.6L25 27L26.6 27.4L27 29L27.4 27.4L29 27L27.4 26.6L27 25Z" stroke="white" stroke-width="1.5" stroke-miterlimit="10" stroke-linecap="round" stroke-linejoin="round"/>
</svg>
