<?xml version="1.0" standalone="no"?>
<!DOCTYPE svg PUBLIC "-//W3C//DTD SVG 20010904//EN"
 "http://www.w3.org/TR/2001/REC-SVG-20010904/DTD/svg10.dtd">
<svg version="1.0" xmlns="http://www.w3.org/2000/svg"
 width="512.000000pt" height="512.000000pt" viewBox="0 0 512.000000 512.000000"
 preserveAspectRatio="xMidYMid meet">

<g transform="translate(0.000000,512.000000) scale(0.100000,-0.100000)"
fill="#000000" stroke="none">
<path d="M3169 4839 c-38 -14 -49 -49 -49 -160 0 -93 2 -102 25 -124 15 -16
36 -25 55 -25 19 0 40 9 55 25 23 22 25 31 25 124 0 114 -10 146 -53 161 -16
5 -30 10 -31 9 -1 0 -13 -5 -27 -10z"/>
<path d="M4435 4432 c-16 -11 -67 -58 -112 -105 -67 -70 -83 -92 -83 -117 0
-42 39 -80 82 -80 27 0 47 15 135 103 86 86 103 108 103 134 0 65 -68 101
-125 65z"/>
<path d="M3270 4364 c-14 -2 -59 -9 -100 -15 -90 -13 -226 -57 -307 -97 -139
-70 -321 -222 -394 -329 -17 -23 -34 -43 -39 -43 -5 0 -33 14 -62 31 -73 43
-180 85 -285 111 -113 28 -317 30 -438 4 -187 -41 -375 -146 -506 -283 -119
-125 -202 -270 -249 -433 -28 -97 -38 -303 -20 -401 6 -39 10 -73 7 -75 -3 -3
-36 -12 -74 -21 -266 -59 -504 -275 -594 -538 -66 -190 -64 -366 5 -549 115
-305 428 -532 763 -553 88 -6 92 -5 117 20 28 28 32 52 15 91 -14 31 -49 42
-149 50 -293 25 -566 263 -626 547 -42 198 23 419 169 576 124 132 262 199
447 219 119 12 132 36 95 180 -73 280 9 577 217 784 108 109 233 181 383 221
115 31 307 31 424 0 257 -68 464 -239 566 -469 45 -101 67 -108 192 -65 65 22
95 27 183 27 152 0 253 -30 372 -112 98 -67 191 -200 233 -332 28 -87 22 -85
218 -86 148 0 183 -4 247 -23 267 -80 468 -283 535 -540 92 -358 -103 -736
-455 -878 -90 -36 -183 -53 -296 -53 -116 0 -157 -11 -173 -46 -17 -38 -13
-63 15 -91 l26 -26 156 6 c118 4 175 10 230 26 333 96 581 355 658 687 26 110
24 300 -4 405 -27 99 -69 198 -117 274 -37 58 -186 216 -233 248 l-24 15 26
82 c90 284 66 583 -67 845 -151 297 -429 513 -757 586 -82 18 -279 32 -330 23z
m205 -165 c326 -40 601 -236 745 -533 70 -144 94 -248 94 -416 1 -80 -4 -157
-12 -190 -15 -61 -42 -150 -46 -150 -1 0 -34 11 -72 24 -106 37 -235 58 -335
54 l-87 -3 -23 55 c-143 348 -543 549 -904 455 -68 -18 -58 -25 -114 74 -18
32 -62 91 -97 131 -71 81 -71 72 0 162 140 176 388 310 625 338 98 11 127 11
226 -1z"/>
<path d="M4689 3319 c-50 -19 -63 -85 -24 -124 23 -24 31 -25 135 -25 104 0
112 1 135 25 41 40 26 106 -28 125 -37 12 -182 12 -218 -1z"/>
<path d="M2209 2359 c-39 -14 -49 -49 -49 -167 l0 -107 -92 92 c-51 51 -105
97 -120 102 -56 21 -117 -31 -104 -86 4 -16 48 -69 104 -125 l97 -98 -101 0
c-116 0 -157 -11 -173 -46 -17 -38 -13 -63 14 -89 23 -24 30 -25 141 -25 l117
0 -101 -104 c-85 -87 -102 -110 -102 -136 0 -42 39 -80 81 -80 27 0 48 16 135
102 l104 102 0 -118 c0 -111 1 -118 25 -141 32 -33 78 -33 110 0 24 23 25 30
25 141 l0 118 104 -102 c83 -83 109 -102 132 -102 51 1 91 50 79 98 -3 14 -50
70 -103 124 l-96 98 118 0 c111 0 118 1 141 25 27 26 31 51 14 89 -16 35 -57
46 -173 46 l-101 0 97 98 c56 56 100 109 104 125 13 55 -48 107 -103 86 -16
-5 -70 -51 -120 -102 l-93 -92 0 107 c0 121 -10 153 -53 168 -16 5 -30 10 -31
9 -1 0 -13 -5 -27 -10z"/>
<path d="M3009 1399 c-39 -14 -49 -49 -49 -167 l0 -107 -92 92 c-51 51 -105
97 -120 102 -56 21 -117 -31 -104 -86 4 -16 48 -69 104 -125 l97 -98 -101 0
c-116 0 -157 -11 -173 -46 -17 -38 -13 -63 14 -89 23 -24 30 -25 141 -25 l117
0 -101 -104 c-85 -87 -102 -110 -102 -136 0 -42 39 -80 81 -80 27 0 48 16 135
102 l104 102 0 -118 c0 -111 1 -118 25 -141 15 -16 36 -25 55 -25 19 0 40 9
55 25 24 23 25 30 25 141 l0 118 104 -102 c83 -83 109 -102 132 -102 51 1 91
50 79 98 -3 14 -50 70 -103 124 l-96 98 118 0 c111 0 118 1 141 25 27 26 31
51 14 89 -16 35 -57 46 -173 46 l-101 0 97 98 c56 56 100 109 104 125 13 55
-48 107 -103 86 -16 -5 -70 -51 -120 -102 l-93 -92 0 107 c0 121 -10 153 -53
168 -16 5 -30 10 -31 9 -1 0 -13 -5 -27 -10z"/>
<path d="M1729 1239 c-39 -14 -49 -49 -49 -167 l0 -107 -92 92 c-51 51 -105
97 -120 102 -56 21 -117 -31 -104 -86 4 -16 48 -69 104 -125 l97 -98 -101 0
c-116 0 -157 -11 -173 -46 -17 -38 -13 -63 14 -89 23 -24 30 -25 142 -25 l118
0 -92 -93 c-95 -96 -113 -121 -113 -157 0 -32 44 -70 81 -70 27 0 48 16 135
102 l104 102 0 -118 c0 -111 1 -118 25 -141 32 -33 78 -33 110 0 24 23 25 30
25 141 l0 118 104 -102 c83 -83 109 -102 132 -102 51 1 91 50 79 98 -3 14 -50
70 -103 124 l-96 98 118 0 c111 0 118 1 141 25 27 26 31 51 14 89 -16 35 -57
46 -173 46 l-101 0 97 98 c56 56 100 109 104 125 13 55 -48 107 -103 86 -16
-5 -70 -51 -120 -102 l-93 -92 0 107 c0 121 -10 153 -53 168 -16 5 -30 10 -31
9 -1 0 -13 -5 -27 -10z"/>
</g>
</svg>
