<svg width="32" height="32" viewBox="0 0 32 32" fill="none" xmlns="http://www.w3.org/2000/svg">
<g clip-path="url(#clip0_293_744)">
<path d="M22 8.00033C21.116 8.00033 20.2681 8.35152 19.643 8.97664C19.0179 9.60176 18.6667 10.4496 18.6667 11.3337C18.6667 11.5105 18.5965 11.68 18.4714 11.8051C18.3464 11.9301 18.1769 12.0003 18 12.0003C17.8232 12.0003 17.6537 11.9301 17.5286 11.8051C17.4036 11.68 17.3334 11.5105 17.3334 11.3337C17.3334 10.4107 17.6071 9.50843 18.1198 8.741C18.6326 7.97357 19.3615 7.37543 20.2142 7.02222C21.0669 6.66901 22.0052 6.5766 22.9105 6.75666C23.8157 6.93673 24.6472 7.38118 25.2999 8.03383C25.9525 8.68647 26.397 9.51799 26.577 10.4232C26.7571 11.3285 26.6647 12.2668 26.3115 13.1195C25.9583 13.9722 25.3601 14.7011 24.5927 15.2139C23.8253 15.7266 22.923 16.0003 22 16.0003H6.00004C5.82323 16.0003 5.65366 15.9301 5.52864 15.8051C5.40361 15.68 5.33337 15.5105 5.33337 15.3337C5.33337 15.1568 5.40361 14.9873 5.52864 14.8623C5.65366 14.7372 5.82323 14.667 6.00004 14.667H22C22.8841 14.667 23.7319 14.3158 24.3571 13.6907C24.9822 13.0656 25.3334 12.2177 25.3334 11.3337C25.3334 10.4496 24.9822 9.60176 24.3571 8.97664C23.7319 8.35152 22.8841 8.00033 22 8.00033ZM12.6667 9.33366C12.3131 9.33366 11.9739 9.47414 11.7239 9.72418C11.4739 9.97423 11.3334 10.3134 11.3334 10.667C11.3334 10.8438 11.2631 11.0134 11.1381 11.1384C11.0131 11.2634 10.8435 11.3337 10.6667 11.3337C10.4899 11.3337 10.3203 11.2634 10.1953 11.1384C10.0703 11.0134 10 10.8438 10 10.667C10 10.1396 10.1564 9.624 10.4495 9.18547C10.7425 8.74694 11.1589 8.40515 11.6462 8.20332C12.1335 8.00148 12.6697 7.94867 13.1869 8.05157C13.7042 8.15446 14.1794 8.40844 14.5523 8.78138C14.9253 9.15432 15.1792 9.62947 15.2821 10.1468C15.385 10.664 15.3322 11.2002 15.1304 11.6875C14.9286 12.1748 14.5868 12.5912 14.1482 12.8842C13.7097 13.1773 13.1941 13.3337 12.6667 13.3337H6.00004C5.82323 13.3337 5.65366 13.2634 5.52864 13.1384C5.40361 13.0134 5.33337 12.8438 5.33337 12.667C5.33337 12.4902 5.40361 12.3206 5.52864 12.1956C5.65366 12.0706 5.82323 12.0003 6.00004 12.0003H12.6667C13.0203 12.0003 13.3595 11.8599 13.6095 11.6098C13.8596 11.3598 14 11.0206 14 10.667C14 10.3134 13.8596 9.97423 13.6095 9.72418C13.3595 9.47414 13.0203 9.33366 12.6667 9.33366ZM5.33337 18.0003C5.33337 17.8235 5.40361 17.6539 5.52864 17.5289C5.65366 17.4039 5.82323 17.3337 6.00004 17.3337H19.3894C20.1805 17.3337 20.9539 17.5683 21.6117 18.0078C22.2695 18.4473 22.7821 19.072 23.0849 19.8029C23.3876 20.5338 23.4669 21.3381 23.3125 22.114C23.1582 22.8899 22.7772 23.6027 22.2178 24.1621C21.6584 24.7215 20.9457 25.1025 20.1697 25.2568C19.3938 25.4111 18.5895 25.3319 17.8586 25.0292C17.1277 24.7264 16.503 24.2137 16.0635 23.5559C15.624 22.8981 15.3894 22.1248 15.3894 21.3337C15.3894 21.1568 15.4596 20.9873 15.5846 20.8623C15.7097 20.7372 15.8792 20.667 16.056 20.667C16.2329 20.667 16.4024 20.7372 16.5274 20.8623C16.6525 20.9873 16.7227 21.1568 16.7227 21.3337C16.7227 21.8611 16.8791 22.3766 17.1721 22.8152C17.4651 23.2537 17.8816 23.5955 18.3689 23.7973C18.8562 23.9992 19.3923 24.052 19.9096 23.9491C20.4269 23.8462 20.9021 23.5922 21.275 23.2193C21.6479 22.8463 21.9019 22.3712 22.0048 21.8539C22.1077 21.3366 22.0549 20.8004 21.8531 20.3132C21.6512 19.8259 21.3094 19.4094 20.8709 19.1164C20.4324 18.8234 19.9168 18.667 19.3894 18.667H6.00004C5.82323 18.667 5.65366 18.5968 5.52864 18.4717C5.40361 18.3467 5.33337 18.1771 5.33337 18.0003Z" fill="#191919"/>
</g>
<defs>
<clipPath id="clip0_293_744">
<rect width="21.3333" height="21.3333" fill="white" transform="translate(5.33337 5.3335)"/>
</clipPath>
</defs>
</svg>
