<svg width="24" height="24" viewBox="0 0 24 24" fill="none" xmlns="http://www.w3.org/2000/svg">
<path d="M12.8096 2.2168C14.9206 3.43948 16.6809 5.18623 17.9209 7.28711C19.1972 9.45707 19.8704 11.9288 19.8691 14.4463C19.8691 14.6076 19.8658 14.7717 19.8604 14.9336C19.7857 17.1298 18.946 18.9783 17.4316 20.2783C16.6318 20.9587 14.195 21.739 13.1846 22.0254V12.6162H11.6846V22.0254C10.0829 21.8805 8.59643 21.2732 7.4375 20.2783C5.92306 18.9782 5.08244 17.1299 5.00781 14.9336C5.00234 14.7717 5 14.6076 5 14.4463C4.99904 11.9677 5.65063 9.53243 6.88965 7.38574C8.1288 5.23892 9.91168 3.45579 12.0586 2.2168L12.4346 2L12.8096 2.2168Z" fill="#191919"/>
</svg>
